<?xml version="1.0" encoding="utf-8"?>
<!-- Generator: Adobe Illustrator 15.1.0, SVG Export Plug-In . SVG Version: 6.00 Build 0)  -->
<!DOCTYPE svg PUBLIC "-//W3C//DTD SVG 1.1//EN" "http://www.w3.org/Graphics/SVG/1.1/DTD/svg11.dtd" [
	<!ENTITY ns_flows "http://ns.adobe.com/Flows/1.0/">
	<!ENTITY ns_extend "http://ns.adobe.com/Extensibility/1.0/">
	<!ENTITY ns_ai "http://ns.adobe.com/AdobeIllustrator/10.0/">
	<!ENTITY ns_graphs "http://ns.adobe.com/Graphs/1.0/">
]>
<svg version="1.1" id="Layer_1" xmlns:x="&ns_extend;" xmlns:i="&ns_ai;" xmlns:graph="&ns_graphs;"
	 xmlns="http://www.w3.org/2000/svg" xmlns:xlink="http://www.w3.org/1999/xlink" xmlns:a="http://ns.adobe.com/AdobeSVGViewerExtensions/3.0/"
	 x="0px" y="0px" width="389.9px" height="245.45px" viewBox="0 0 389.9 245.45" enable-background="new 0 0 389.9 245.45"
	 xml:space="preserve">
<g>
	<path fill="#ECC5C3" d="M146.38,125.46c-4.05,1.92-7.81,2.87-11.27,2.87c-2.51,0-4.81-0.61-6.91-1.82c-2.1-1.21-3.15-2.78-3.15-4.7
		c0-0.66,0.15-1.36,0.44-2.1c1.47-4.05,6.45-7.18,14.92-9.39c4.05-1.11,7.99-1.66,11.82-1.66c3.83,0,7.55,0.41,11.16,1.22
		C158.16,117.32,152.49,122.51,146.38,125.46 M212.29,62.97c-8.21,8.95-17.44,14.57-27.68,16.85c3.02-6.26,6.46-13.09,10.33-20.5
		c3.87-7.4,7.9-13.72,12.1-18.95c5.38-6.55,9.95-9.83,13.7-9.83c2.58,0,3.87,1.4,3.87,4.2C224.61,44.61,220.5,54.02,212.29,62.97
		 M229.14,32.09c-0.15-2.06-1.23-3.81-3.26-5.25c-2.03-1.44-4.16-2.15-6.41-2.15c-2.25,0-4.55,0.48-6.91,1.44
		c-8.99,3.83-16.72,14.07-23.21,30.72l-9.39,23.65c-1.84,0.22-3.85,0.33-6.02,0.33c-2.17,0-4.71-0.4-7.62-1.21
		c-2.91-0.81-5.21-2.23-6.91-4.25c-1.7-2.03-2.8-4-3.32-5.91c-0.52-1.92-0.77-3.55-0.77-4.92s0.22-2.78,0.66-4.25
		c1.84-6.26,5.12-10.9,9.83-13.92c2.73-1.77,5.67-2.83,8.84-3.2c0.96-0.15,1.81-0.37,2.54-0.66c0.74-0.29,1.03-0.62,0.88-1
		c-0.15-0.37-0.55-0.55-1.22-0.55c-0.66,0-1.47,0.11-2.43,0.33c-6.04,1.4-11.03,3.46-14.97,6.19c-3.94,2.73-6.48,5.42-7.62,8.07
		c-1.14,2.65-1.71,5.12-1.71,7.4c0,4.35,1.55,8.25,4.64,11.71c2.36,2.65,5.52,4.75,9.5,6.3c3.98,1.55,8.29,2.32,12.93,2.32h1.22
		c-4.42,9.06-8.29,16.17-11.6,21.33c-3.09-0.59-6.56-0.88-10.39-0.88c-10.68,0-19.15,1.84-25.42,5.52
		c-5.52,3.17-8.29,6.85-8.29,11.05c0,4.2,2.1,7.33,6.3,9.39c2.43,1.25,5.21,1.88,8.34,1.88c3.13,0,6.72-1,10.77-2.98
		c6.78-3.24,13.3-9.24,19.56-18.01c6.11,1.18,11,2.23,14.64,3.15c3.65,0.92,7.96,2.47,12.93,4.64c4.97,2.17,8.86,4.49,11.66,6.96
		c2.8,2.47,4.71,5.17,5.75,8.12c1.03,2.95,1.55,5.64,1.55,8.07c0,2.43-0.42,4.55-1.27,6.35c-0.85,1.8-1.27,2.89-1.27,3.26
		s0.22,0.55,0.66,0.55s1.18-0.26,2.21-0.77s1.93-1.46,2.71-2.82c0.77-1.36,1.16-3.04,1.16-5.03s-0.44-4.38-1.33-7.18
		c-1.7-5.45-4.97-10.06-9.83-13.81c-9.58-7.37-21.66-12.85-36.24-16.46l2.32-3.76c1.99-3.61,5.23-9.95,9.72-19.01
		c7.81-1.33,15.38-4.58,22.71-9.78c7.33-5.19,13.08-11.29,17.24-18.29c4.16-7,6.24-13.7,6.24-20.11
		C229.25,33.82,229.21,32.97,229.14,32.09"/>
	<path fill="#ECC5C3" d="M286.12,84.45c-0.81,3.09-2.98,4.86-6.52,5.3c-1.99,0.22-2.91,0.81-2.76,1.77
		c0.15,0.66,0.88,0.81,2.21,0.44c3.09-0.88,5.56-2.06,7.4-3.54c2.65-2.28,3.98-4.86,3.98-7.73c0-0.74-0.07-1.47-0.22-2.21
		c-0.88-3.76-3.3-6.58-7.24-8.45c-3.94-1.88-9.04-2.82-15.3-2.82c-13.33,0-23.65,3.09-30.94,9.28c-5.08,4.35-7.62,8.8-7.62,13.37
		c0,5.23,2.84,9.76,8.51,13.59c2.58,1.7,7.61,4.14,15.08,7.35c7.48,3.21,12.43,5.77,14.86,7.68c4.49,3.83,6.74,8.25,6.74,13.26
		c0,2.21-0.44,4.49-1.33,6.85c-2.8,7.96-8.95,14.44-18.45,19.45c-4.42,2.28-9.01,3.92-13.76,4.92c-4.75,1-8.51,1.49-11.27,1.49
		c-2.76,0-4.84-0.07-6.24-0.22c-12.38-0.88-21.07-4.68-26.08-11.38c-2.8-3.76-4.2-8.14-4.2-13.15c0-7.59,2.06-14.62,6.19-21.11
		c1.92-3.02,4.46-5.78,7.62-8.29c1.47-1.25,1.93-1.95,1.38-2.1c-0.55-0.15-1.38,0-2.49,0.44c-5.3,2.5-9.78,6.78-13.43,12.82
		c-3.65,6.04-5.47,11.57-5.47,16.57c0,7.88,2.95,14.33,8.84,19.34c7.59,6.56,17.83,9.83,30.72,9.83c13.41,0,24.86-2.87,34.37-8.62
		c8.25-4.93,14.51-10.83,18.79-17.68c2.43-3.83,3.65-7.59,3.65-11.27c0-2.58-0.83-5.38-2.49-8.4c-1.66-3.02-4.66-5.86-9.01-8.51
		c-2.87-1.77-7.42-4.07-13.65-6.91c-6.23-2.83-10.37-4.88-12.43-6.13c-5.53-3.46-8.29-7.37-8.29-11.71c0-3.24,1.88-6.48,5.63-9.72
		c2.43-2.06,5.3-3.68,8.62-4.86c6.33-2.28,12.12-3.43,17.35-3.43c5.97,0,10.64,1.62,14.03,4.86c2.36,2.28,3.54,4.71,3.54,7.29
		C286.45,82.87,286.34,83.64,286.12,84.45"/>
	<path fill="#262223" d="M355.9,138.93c-0.1,0.94-0.27,1.84-0.51,2.71c-0.24,0.87-0.56,1.69-0.97,2.46
		c-0.41,0.77-0.92,1.45-1.53,2.02c-0.61,0.57-1.34,1.02-2.18,1.36c-0.84,0.33-1.81,0.5-2.93,0.5c-1.06,0-2-0.18-2.81-0.55
		c-0.81-0.37-1.52-0.85-2.12-1.47s-1.1-1.33-1.49-2.14s-0.72-1.67-0.97-2.57c-0.25-0.9-0.42-1.81-0.52-2.74
		c-0.1-0.93-0.15-1.82-0.15-2.67c0-0.86,0.05-1.75,0.15-2.68c0.1-0.92,0.27-1.82,0.51-2.69c0.24-0.87,0.56-1.7,0.96-2.48
		c0.4-0.78,0.9-1.46,1.49-2.04c0.6-0.58,1.3-1.04,2.1-1.38c0.81-0.34,1.74-0.51,2.8-0.51c1.15,0,2.15,0.17,3.01,0.51
		s1.6,0.8,2.22,1.38s1.12,1.26,1.52,2.04c0.4,0.78,0.71,1.62,0.95,2.51c0.23,0.9,0.39,1.83,0.48,2.79c0.09,0.96,0.14,1.91,0.14,2.84
		C356.05,137.07,356,138,355.9,138.93 M359.46,130.88c-0.58-1.59-1.41-2.99-2.48-4.2c-1.07-1.2-2.35-2.16-3.85-2.86
		c-1.5-0.71-3.16-1.06-5.01-1.06c-1.88,0-3.59,0.34-5.16,1.03c-1.56,0.69-2.91,1.63-4.03,2.81c-1.13,1.19-2,2.58-2.63,4.18
		c-0.62,1.6-0.93,3.32-0.93,5.17c0,1.83,0.29,3.55,0.87,5.18c0.58,1.63,1.42,3.05,2.5,4.27c1.09,1.22,2.4,2.19,3.93,2.9
		c1.54,0.71,3.25,1.07,5.14,1.07s3.61-0.36,5.14-1.08s2.85-1.7,3.93-2.94c1.09-1.24,1.93-2.67,2.53-4.3c0.6-1.63,0.9-3.34,0.9-5.16
		C360.33,134.15,360.04,132.47,359.46,130.88 M334.34,148.76v-0.72c-0.83,0-1.49-0.05-1.97-0.16c-0.48-0.11-0.85-0.3-1.1-0.57
		s-0.41-0.66-0.49-1.15c-0.08-0.49-0.11-1.12-0.11-1.88v-16.48c0-0.78,0.04-1.42,0.12-1.91s0.25-0.88,0.51-1.16s0.63-0.48,1.11-0.58
		c0.48-0.11,1.12-0.16,1.92-0.16v-0.67h-10.91v0.67c0.81,0,1.46,0.05,1.94,0.16c0.48,0.11,0.85,0.3,1.09,0.58s0.41,0.67,0.47,1.16
		c0.07,0.49,0.1,1.12,0.1,1.91v16.48c0,0.76-0.03,1.39-0.1,1.88c-0.07,0.49-0.23,0.87-0.47,1.15s-0.61,0.46-1.09,0.57
		c-0.48,0.11-1.13,0.16-1.94,0.16v0.72H334.34z M317.4,140.48c-0.44,1.39-1.09,2.6-1.94,3.63c-0.86,1.04-1.91,1.86-3.18,2.47
		c-1.26,0.61-2.72,0.91-4.38,0.91c-0.66,0-1.33-0.05-2-0.16c-0.67-0.11-1.33-0.25-1.98-0.41V125.3c0.65-0.18,1.29-0.32,1.93-0.42
		s1.29-0.15,1.96-0.15c1.66,0,3.13,0.29,4.41,0.88c1.28,0.59,2.35,1.4,3.22,2.43s1.53,2.23,1.97,3.61c0.44,1.38,0.66,2.85,0.66,4.41
		S317.84,139.09,317.4,140.48 M321.11,129.83c-0.79-1.61-1.87-2.9-3.24-3.87c-1.37-0.97-2.98-1.66-4.84-2.06
		c-1.86-0.4-3.86-0.6-6-0.6H296.7v0.67c0.81,0,1.46,0.05,1.94,0.15s0.85,0.29,1.1,0.56c0.25,0.27,0.41,0.66,0.47,1.16
		c0.07,0.5,0.1,1.15,0.1,1.94v16.48c0,0.78-0.04,1.42-0.12,1.91c-0.08,0.49-0.25,0.87-0.5,1.15c-0.25,0.27-0.61,0.46-1.08,0.56
		c-0.47,0.1-1.11,0.15-1.9,0.15v0.72h11.35c2.04,0,3.93-0.27,5.67-0.8c1.73-0.53,3.24-1.33,4.51-2.4s2.27-2.41,2.99-4.01
		c0.72-1.6,1.08-3.48,1.08-5.64C322.29,133.47,321.9,131.44,321.11,129.83 M295.17,123.31h-9.04v0.67c0.8,0,1.44,0.05,1.92,0.15
		c0.48,0.1,0.85,0.29,1.11,0.57s0.42,0.67,0.5,1.16c0.08,0.49,0.11,1.13,0.11,1.93v10.31c0,0.53-0.01,1.14-0.04,1.82
		c-0.03,0.68-0.1,1.37-0.21,2.05c-0.12,0.69-0.29,1.34-0.52,1.97c-0.23,0.62-0.55,1.12-0.97,1.51c-0.85,0.8-1.79,1.38-2.84,1.74
		s-2.14,0.55-3.29,0.55c-1.41,0-2.55-0.24-3.42-0.71c-0.87-0.47-1.54-1.11-2.02-1.92c-0.47-0.8-0.79-1.74-0.95-2.81
		c-0.16-1.07-0.24-2.2-0.24-3.38v-11.13c0-0.7,0.04-1.29,0.11-1.77c0.08-0.48,0.23-0.88,0.46-1.18c0.23-0.31,0.56-0.53,1-0.66
		c0.43-0.13,1.01-0.2,1.74-0.2v-0.67h-10.24v0.67c0.75,0,1.34,0.07,1.78,0.2c0.44,0.13,0.77,0.35,1,0.66
		c0.22,0.31,0.37,0.7,0.44,1.18c0.07,0.48,0.1,1.07,0.1,1.77v10.01c0,1.84,0.13,3.48,0.39,4.92c0.26,1.44,0.75,2.65,1.48,3.64
		c0.73,0.99,1.75,1.74,3.05,2.25c1.3,0.52,2.99,0.77,5.07,0.77c1.88,0,3.45-0.25,4.71-0.76c1.26-0.51,2.27-1.23,3.03-2.18
		c0.75-0.95,1.29-2.1,1.62-3.47s0.48-2.93,0.48-4.67v-10.36c0-0.73,0.05-1.35,0.15-1.85c0.1-0.51,0.28-0.91,0.55-1.22
		c0.26-0.31,0.64-0.53,1.12-0.67c0.48-0.14,1.1-0.21,1.87-0.21V123.31z M266.73,129.28l-0.25-5.98h-21.12l-0.25,5.98h0.87
		c0.07-0.85,0.21-1.55,0.44-2.12s0.54-1.01,0.95-1.34c0.41-0.33,0.91-0.57,1.51-0.71c0.6-0.14,1.29-0.21,2.09-0.21h3.06v19.42
		c0,0.76-0.04,1.39-0.11,1.87c-0.08,0.48-0.24,0.86-0.49,1.13c-0.25,0.27-0.61,0.46-1.07,0.56c-0.46,0.1-1.1,0.15-1.89,0.15v0.72
		h10.76v-0.72c-0.8,0-1.43-0.05-1.9-0.14c-0.47-0.09-0.83-0.27-1.08-0.55c-0.25-0.27-0.41-0.65-0.47-1.13
		c-0.07-0.48-0.1-1.11-0.1-1.89V124.9h3.56c1.51,0,2.63,0.37,3.36,1.11c0.73,0.74,1.17,1.83,1.32,3.28H266.73z M242.97,139.58
		c-0.4-0.77-0.93-1.47-1.58-2.1s-1.4-1.2-2.23-1.72c-0.83-0.51-1.68-1-2.55-1.46c-0.87-0.46-1.72-0.91-2.55-1.34
		c-0.83-0.44-1.57-0.9-2.23-1.38c-0.66-0.48-1.18-1-1.58-1.57c-0.4-0.56-0.6-1.2-0.6-1.89c0-0.6,0.13-1.13,0.38-1.61
		c0.26-0.47,0.6-0.88,1.02-1.22c0.42-0.34,0.9-0.6,1.43-0.78c0.53-0.18,1.08-0.27,1.64-0.27c1.06,0,2.01,0.2,2.85,0.58
		c0.84,0.39,1.55,0.91,2.14,1.57s1.06,1.43,1.41,2.32c0.35,0.89,0.57,1.83,0.65,2.83h0.72v-8.76h-0.72
		c-0.03,0.13-0.08,0.28-0.14,0.45c-0.06,0.17-0.14,0.32-0.24,0.46c-0.1,0.14-0.22,0.26-0.35,0.36c-0.13,0.1-0.3,0.15-0.5,0.15
		c-0.28,0-0.64-0.08-1.07-0.22c-0.43-0.15-0.91-0.31-1.43-0.49c-0.52-0.17-1.08-0.34-1.66-0.49s-1.15-0.22-1.72-0.22
		c-0.98,0-1.91,0.15-2.8,0.46c-0.89,0.31-1.67,0.75-2.35,1.32c-0.68,0.57-1.22,1.27-1.63,2.09c-0.41,0.82-0.61,1.76-0.61,2.8
		c0,0.96,0.19,1.82,0.58,2.58c0.39,0.76,0.9,1.44,1.53,2.07c0.63,0.62,1.35,1.19,2.17,1.71c0.81,0.51,1.64,1,2.48,1.47
		s1.66,0.93,2.48,1.38c0.81,0.46,1.54,0.94,2.17,1.44s1.14,1.05,1.53,1.64c0.39,0.59,0.58,1.25,0.58,1.98c0,0.7-0.15,1.31-0.45,1.83
		c-0.3,0.52-0.68,0.96-1.16,1.31c-0.47,0.35-1.01,0.61-1.62,0.79c-0.61,0.17-1.22,0.26-1.83,0.26c-1.13,0-2.14-0.18-3.03-0.54
		c-0.89-0.36-1.65-0.85-2.28-1.49c-0.63-0.64-1.14-1.41-1.52-2.3c-0.38-0.9-0.64-1.88-0.77-2.96h-0.67v8.79h0.67
		c0.02-0.17,0.05-0.34,0.1-0.51c0.05-0.18,0.12-0.34,0.21-0.49c0.09-0.15,0.21-0.27,0.35-0.36c0.14-0.09,0.31-0.14,0.51-0.14
		c0.32,0,0.72,0.08,1.22,0.24c0.5,0.16,1.05,0.33,1.66,0.51c0.61,0.18,1.25,0.35,1.93,0.51c0.68,0.16,1.36,0.24,2.04,0.24
		c1.03,0,2.03-0.17,2.99-0.5s1.81-0.8,2.55-1.42s1.33-1.36,1.78-2.24c0.45-0.88,0.67-1.88,0.67-2.99
		C243.57,141.24,243.37,140.35,242.97,139.58 M185.5,123.31h-8.89v0.67c0.28,0,0.57,0.03,0.87,0.09c0.3,0.06,0.57,0.16,0.82,0.3
		c0.25,0.14,0.46,0.33,0.62,0.56c0.17,0.23,0.25,0.52,0.25,0.87c0,0.2-0.04,0.42-0.11,0.67c-0.08,0.25-0.17,0.49-0.29,0.74
		c-0.12,0.24-0.24,0.47-0.37,0.68s-0.25,0.41-0.35,0.57l-5.05,7.84c-0.03-0.05-0.21-0.32-0.54-0.8c-0.32-0.48-0.72-1.08-1.2-1.78
		c-0.47-0.71-0.98-1.48-1.53-2.32c-0.55-0.84-1.06-1.64-1.53-2.42c-0.47-0.77-0.86-1.46-1.17-2.07c-0.31-0.61-0.46-1.03-0.46-1.28
		c0-0.38,0.1-0.68,0.3-0.91c0.2-0.22,0.45-0.39,0.75-0.5c0.3-0.11,0.62-0.18,0.96-0.21c0.34-0.03,0.64-0.05,0.91-0.05v-0.67H158.6
		v0.67c0.56,0,1.07,0.11,1.52,0.34c0.45,0.22,0.85,0.52,1.22,0.87c0.37,0.36,0.7,0.75,1.01,1.18c0.31,0.43,0.59,0.85,0.86,1.27
		l6.92,10.66v6.03c0,0.76-0.03,1.39-0.1,1.87c-0.07,0.48-0.22,0.86-0.46,1.13c-0.24,0.27-0.59,0.46-1.06,0.56
		c-0.46,0.1-1.1,0.15-1.89,0.15v0.72h10.81v-0.72c-0.8,0-1.43-0.05-1.9-0.14s-0.83-0.27-1.08-0.55c-0.25-0.27-0.42-0.65-0.5-1.13
		c-0.08-0.48-0.12-1.11-0.12-1.89v-6.38l6.67-10.43c0.35-0.55,0.69-1.04,1.02-1.47c0.33-0.43,0.69-0.8,1.07-1.11
		c0.38-0.31,0.8-0.54,1.27-0.71c0.46-0.17,1.01-0.25,1.64-0.25V123.31z M151.41,132.78c-0.43,0.71-1,1.27-1.69,1.69
		c-0.7,0.42-1.49,0.73-2.37,0.91c-0.88,0.18-1.78,0.27-2.69,0.27c-0.22,0-0.42,0-0.61-0.01c-0.19-0.01-0.35-0.02-0.46-0.04v-10.56
		c0.52-0.08,1.02-0.16,1.51-0.22c0.49-0.07,0.98-0.1,1.46-0.1c0.81,0,1.56,0.13,2.23,0.39c0.67,0.26,1.25,0.62,1.74,1.1
		c0.49,0.47,0.87,1.04,1.13,1.71c0.27,0.67,0.4,1.4,0.4,2.22C152.05,131.19,151.84,132.08,151.41,132.78 M161.74,148.76v-0.72
		c-0.81-0.07-1.52-0.21-2.13-0.44s-1.16-0.52-1.66-0.88c-0.5-0.37-0.96-0.8-1.39-1.29c-0.43-0.5-0.88-1.07-1.35-1.72l-5.21-7.35
		c0.88-0.18,1.7-0.44,2.47-0.78c0.76-0.34,1.42-0.77,1.98-1.29c0.56-0.52,0.99-1.15,1.31-1.88c0.31-0.73,0.47-1.58,0.47-2.56
		c0-0.96-0.15-1.79-0.45-2.49c-0.3-0.7-0.71-1.29-1.22-1.78c-0.51-0.49-1.11-0.88-1.79-1.17s-1.4-0.52-2.15-0.68
		c-0.75-0.17-1.53-0.27-2.33-0.32c-0.8-0.05-1.56-0.07-2.29-0.07h-9.59v0.67c0.81,0,1.46,0.05,1.94,0.15
		c0.48,0.1,0.85,0.29,1.1,0.57s0.41,0.67,0.47,1.16c0.07,0.49,0.1,1.13,0.1,1.93v16.48c0,0.78-0.03,1.42-0.1,1.91
		c-0.07,0.49-0.22,0.87-0.47,1.15c-0.25,0.27-0.61,0.46-1.1,0.56c-0.48,0.1-1.13,0.15-1.94,0.15v0.72h10.91v-0.72
		c-0.8,0-1.44-0.05-1.93-0.15c-0.49-0.1-0.87-0.29-1.13-0.56c-0.27-0.27-0.44-0.66-0.54-1.15c-0.09-0.49-0.14-1.12-0.14-1.91v-7.37
		c0.2,0.02,0.4,0.03,0.6,0.04c0.2,0.01,0.41,0.01,0.62,0.01c0.51,0,1.01-0.03,1.49-0.08l8.62,11.88H161.74z M134.89,123.31h-9.04
		v0.67c0.8,0,1.44,0.05,1.92,0.15c0.48,0.1,0.85,0.29,1.11,0.57c0.26,0.28,0.42,0.67,0.5,1.16c0.07,0.49,0.11,1.13,0.11,1.93v10.31
		c0,0.53-0.01,1.14-0.04,1.82c-0.02,0.68-0.1,1.37-0.21,2.05s-0.29,1.34-0.52,1.97c-0.23,0.62-0.56,1.12-0.97,1.51
		c-0.85,0.8-1.79,1.38-2.84,1.74s-2.14,0.55-3.29,0.55c-1.41,0-2.55-0.24-3.42-0.71c-0.87-0.47-1.54-1.11-2.02-1.92
		c-0.47-0.8-0.79-1.74-0.95-2.81c-0.16-1.07-0.24-2.2-0.24-3.38v-11.13c0-0.7,0.04-1.29,0.11-1.77c0.07-0.48,0.23-0.88,0.46-1.18
		c0.23-0.31,0.56-0.53,1-0.66c0.43-0.13,1.01-0.2,1.74-0.2v-0.67h-10.23v0.67c0.75,0,1.34,0.07,1.78,0.2c0.44,0.13,0.77,0.35,1,0.66
		c0.23,0.31,0.37,0.7,0.44,1.18c0.07,0.48,0.1,1.07,0.1,1.77v10.01c0,1.84,0.13,3.48,0.39,4.92c0.26,1.44,0.75,2.65,1.48,3.64
		c0.73,0.99,1.75,1.74,3.05,2.25c1.3,0.52,2.99,0.77,5.07,0.77c1.88,0,3.44-0.25,4.71-0.76c1.26-0.51,2.27-1.23,3.03-2.18
		c0.76-0.95,1.3-2.1,1.62-3.47c0.32-1.37,0.48-2.93,0.48-4.67v-10.36c0-0.73,0.05-1.35,0.15-1.85c0.1-0.51,0.28-0.91,0.55-1.22
		c0.27-0.31,0.64-0.53,1.12-0.67c0.48-0.14,1.1-0.21,1.87-0.21V123.31z M106.87,148.76v-0.72c-0.55-0.02-1.06-0.12-1.53-0.32
		s-0.92-0.47-1.35-0.82c-0.42-0.35-0.84-0.78-1.26-1.28c-0.42-0.51-0.84-1.08-1.27-1.73l-6.23-9.24l5.6-7.07
		c0.5-0.63,0.95-1.17,1.37-1.61c0.41-0.44,0.83-0.8,1.25-1.08c0.42-0.28,0.85-0.49,1.29-0.64c0.45-0.14,0.96-0.23,1.54-0.26v-0.67
		h-9.02v0.67c0.2,0.02,0.45,0.04,0.76,0.06c0.31,0.02,0.61,0.08,0.91,0.17c0.3,0.09,0.55,0.23,0.76,0.41
		c0.21,0.18,0.31,0.42,0.31,0.72c0,0.23-0.13,0.58-0.39,1.03c-0.26,0.46-0.58,0.96-0.98,1.52c-0.4,0.56-0.83,1.13-1.31,1.73
		c-0.47,0.6-0.92,1.15-1.34,1.67c-0.42,0.51-0.79,0.96-1.11,1.32c-0.31,0.36-0.51,0.59-0.57,0.67c-0.08-0.12-0.26-0.36-0.54-0.73
		c-0.27-0.37-0.59-0.81-0.95-1.32c-0.36-0.51-0.73-1.05-1.12-1.63s-0.75-1.14-1.07-1.68c-0.32-0.54-0.59-1.03-0.81-1.47
		c-0.22-0.44-0.32-0.78-0.32-1.01c0-0.3,0.1-0.54,0.29-0.73c0.19-0.19,0.42-0.34,0.7-0.44c0.27-0.1,0.56-0.17,0.87-0.21
		c0.31-0.04,0.58-0.07,0.81-0.09v-0.67H80.4v0.67c0.85,0.05,1.58,0.21,2.22,0.49c0.63,0.27,1.21,0.63,1.73,1.06
		c0.52,0.43,1,0.93,1.45,1.51c0.44,0.57,0.88,1.18,1.33,1.83l5.05,7.35l-6.62,8.32c-0.38,0.46-0.8,0.91-1.26,1.33
		c-0.46,0.42-0.93,0.8-1.43,1.12c-0.5,0.32-1,0.58-1.52,0.77c-0.51,0.19-1.02,0.29-1.52,0.29v0.72h9.09v-0.72
		c-0.25,0-0.52-0.02-0.8-0.05c-0.28-0.03-0.55-0.1-0.8-0.2c-0.25-0.1-0.46-0.25-0.62-0.44c-0.17-0.19-0.25-0.44-0.25-0.74
		c0-0.18,0.04-0.38,0.12-0.58c0.08-0.21,0.18-0.41,0.3-0.61c0.12-0.2,0.24-0.39,0.37-0.57c0.13-0.18,0.25-0.34,0.35-0.47l5.35-6.85
		c0.03,0.05,0.2,0.28,0.49,0.7c0.29,0.42,0.64,0.93,1.04,1.54c0.41,0.61,0.85,1.28,1.32,1.99c0.47,0.71,0.91,1.4,1.31,2.05
		c0.4,0.66,0.73,1.24,1,1.74c0.26,0.51,0.4,0.86,0.4,1.06c0,0.32-0.09,0.57-0.27,0.76c-0.18,0.19-0.4,0.34-0.66,0.43
		c-0.26,0.1-0.54,0.16-0.83,0.19c-0.3,0.02-0.56,0.04-0.8,0.04v0.72H106.87z M78.8,123.31h-9.04v0.67c0.8,0,1.44,0.05,1.92,0.15
		c0.48,0.1,0.85,0.29,1.11,0.57c0.26,0.28,0.42,0.67,0.5,1.16c0.07,0.49,0.11,1.13,0.11,1.93v10.31c0,0.53-0.01,1.14-0.04,1.82
		s-0.09,1.37-0.21,2.05c-0.12,0.69-0.29,1.34-0.52,1.97c-0.23,0.62-0.56,1.12-0.97,1.51c-0.85,0.8-1.79,1.38-2.84,1.74
		s-2.14,0.55-3.29,0.55c-1.41,0-2.55-0.24-3.42-0.71c-0.87-0.47-1.54-1.11-2.02-1.92c-0.47-0.8-0.79-1.74-0.95-2.81
		c-0.16-1.07-0.24-2.2-0.24-3.38v-11.13c0-0.7,0.04-1.29,0.11-1.77c0.07-0.48,0.23-0.88,0.46-1.18c0.23-0.31,0.56-0.53,1-0.66
		c0.43-0.13,1.01-0.2,1.74-0.2v-0.67H51.99v0.67c0.75,0,1.34,0.07,1.78,0.2c0.44,0.13,0.77,0.35,1,0.66
		c0.22,0.31,0.37,0.7,0.44,1.18c0.07,0.48,0.1,1.07,0.1,1.77v10.01c0,1.84,0.13,3.48,0.39,4.92c0.26,1.44,0.75,2.65,1.48,3.64
		c0.73,0.99,1.75,1.74,3.05,2.25c1.3,0.52,2.99,0.77,5.07,0.77c1.88,0,3.45-0.25,4.71-0.76c1.26-0.51,2.27-1.23,3.03-2.18
		c0.76-0.95,1.3-2.1,1.62-3.47c0.32-1.37,0.49-2.93,0.49-4.67v-10.36c0-0.73,0.05-1.35,0.15-1.85c0.1-0.51,0.28-0.91,0.55-1.22
		c0.27-0.31,0.64-0.53,1.12-0.67c0.48-0.14,1.1-0.21,1.87-0.21V123.31z M52.18,141.81l-0.65-0.1c-0.48,1.13-0.96,2.05-1.42,2.75
		c-0.46,0.71-1,1.25-1.61,1.64c-0.61,0.39-1.32,0.66-2.15,0.8c-0.83,0.14-1.86,0.21-3.09,0.21h-2.54c-0.63,0-1.15-0.04-1.57-0.14
		c-0.42-0.09-0.74-0.26-0.98-0.5c-0.24-0.24-0.41-0.56-0.51-0.97s-0.15-0.92-0.15-1.56v-16.76c0-0.66,0.08-1.2,0.25-1.62
		c0.17-0.41,0.41-0.73,0.72-0.96c0.31-0.22,0.7-0.38,1.17-0.46c0.46-0.08,1-0.12,1.62-0.12v-0.72H30.21v0.72
		c0.6,0,1.13,0.04,1.59,0.12c0.46,0.08,0.85,0.24,1.16,0.46c0.31,0.22,0.54,0.54,0.71,0.96c0.17,0.42,0.25,0.96,0.25,1.62v17.68
		c0,0.68-0.08,1.23-0.25,1.64c-0.17,0.42-0.4,0.73-0.71,0.96c-0.31,0.22-0.69,0.37-1.16,0.45c-0.46,0.07-1,0.11-1.59,0.11v0.72
		h19.77L52.18,141.81z"/>
	<path fill="#FFFFFF" d="M297.88,195.15c0.06,1.09,0.48,1.88,1.26,2.36c-0.17,0.08-0.38,0.13-0.63,0.13c-0.61,0-1-0.28-1.17-0.85
		c-0.02-0.15-0.03-0.28-0.03-0.41C297.31,195.94,297.5,195.53,297.88,195.15 M298.35,194.74c0-0.63-0.22-0.95-0.66-0.95
		c0.38-0.69,1.37-2.64,2.96-5.83c-0.02,0.15-0.03,0.42-0.03,0.82c0,0.4,0.07,1.17,0.22,2.3c0.15,1.13,0.22,2.03,0.22,2.68
		c0,1.6-0.46,2.75-1.39,3.47C298.79,196.81,298.35,195.98,298.35,194.74 M302.32,195.82c0.44-0.67,0.66-1.36,0.66-2.05
		c0-0.69-0.24-1.59-0.73-2.68c-0.21-0.44-0.4-0.85-0.57-1.23s-0.25-0.86-0.25-1.45c0-1.11,0.36-1.84,1.07-2.17
		c0.13-0.06,0.27-0.09,0.44-0.09s0.37,0.05,0.6,0.16c0.23,0.11,0.38,0.07,0.46-0.09c0.07-0.17-0.03-0.32-0.31-0.46
		c-0.29-0.14-0.57-0.21-0.87-0.21c-1.11,0-2.09,0.89-2.93,2.68c-0.76,1.64-1.67,3.48-2.74,5.51c-0.29,0.02-0.57,0.21-0.84,0.57
		c-0.26,0.36-0.39,0.73-0.39,1.12s0.03,0.72,0.09,0.99c0.31,1.18,1.22,1.77,2.71,1.77c0.38,0,0.81-0.11,1.29-0.32
		c0.73,0.21,1.49,0.19,2.27-0.06c0.48-0.15,0.9-0.4,1.26-0.76l0.66-0.69c0.21-0.19,0.42-0.45,0.63-0.79s0.38-0.62,0.52-0.85
		c0.14-0.23,0.3-0.54,0.49-0.91c0.19-0.38,0.33-0.67,0.41-0.87s0.17-0.4,0.27-0.6c0.09-0.2,0.14-0.32,0.14-0.36
		c0-0.17-0.09-0.24-0.28-0.22c-0.11,0-0.18,0.05-0.22,0.16c-1.13,2.21-1.92,3.58-2.36,4.13c-0.82,0.99-1.65,1.48-2.49,1.48
		c-0.1,0-0.29-0.02-0.57-0.06C301.36,197.03,301.88,196.49,302.32,195.82 M290.15,190.96c0.63-1.62,1.45-3.5,2.44-5.66
		c1-2.15,1.79-3.65,2.38-4.48s0.99-1.24,1.2-1.24c0.15,0,0.22,0.21,0.22,0.63c0,0.42-0.25,1.21-0.74,2.38
		c-0.49,1.17-1.27,2.58-2.32,4.24C292.28,188.49,291.22,189.87,290.15,190.96 M289.89,191.97c2.5-2.29,4.65-5.44,6.46-9.45
		c0.5-1.09,0.76-2,0.76-2.71c0-0.19-0.01-0.35-0.03-0.47c-0.17-0.69-0.49-1.04-0.98-1.04c-0.69,0-1.4,0.38-2.11,1.13
		c-0.36,0.38-0.85,1.09-1.46,2.13c-0.62,1.04-1.38,2.59-2.27,4.65c-0.89,2.06-1.58,3.96-2.06,5.7c-0.02,0.08-0.13,0.44-0.33,1.07
		c-0.2,0.63-0.33,1.28-0.39,1.95c-0.02,0.4-0.03,0.72-0.03,0.98s0.04,0.54,0.11,0.87c0.07,0.33,0.29,0.63,0.65,0.91
		c0.36,0.28,0.86,0.43,1.51,0.43c0.65,0,1.34-0.23,2.08-0.69c0.27-0.17,0.56-0.43,0.87-0.77c0.3-0.35,0.55-0.63,0.73-0.85
		c0.18-0.22,0.39-0.56,0.63-1.01c0.24-0.45,0.41-0.77,0.5-0.94c0.1-0.18,0.24-0.49,0.44-0.95c0.2-0.45,0.33-0.75,0.39-0.88
		s0.04-0.25-0.06-0.33c-0.15-0.06-0.3,0.05-0.47,0.35c-0.8,1.58-1.55,2.87-2.27,3.89c-0.71,1.02-1.45,1.53-2.21,1.53
		c-0.46,0-0.8-0.19-1.01-0.58c-0.21-0.39-0.32-0.81-0.32-1.26c0-0.45,0.06-0.9,0.17-1.35s0.26-0.92,0.43-1.42
		S289.87,192.06,289.89,191.97 M280.03,196.45c0-0.55,0.18-1.21,0.54-1.99l2.52-5.89c0.21-0.38,0.27-0.66,0.19-0.83
		c-0.08-0.18-0.37-0.27-0.85-0.27l-1.73,0.03c0.25,0.34,0.38,0.61,0.38,0.82s-0.02,0.38-0.06,0.5l-2.02,5.14
		c-0.27,0.67-0.41,1.29-0.41,1.86s0.17,1.08,0.5,1.54c0.33,0.46,0.89,0.69,1.65,0.69c0.77,0,1.58-0.49,2.44-1.48
		c0.32-0.36,0.67-0.87,1.06-1.53c0.39-0.66,0.65-1.14,0.79-1.43c0.14-0.29,0.29-0.62,0.46-0.99c0.17-0.37,0.25-0.6,0.25-0.69
		s-0.02-0.16-0.06-0.21c-0.15-0.13-0.29-0.03-0.44,0.28c-1.2,2.4-2.19,3.98-2.96,4.76c-0.44,0.4-0.86,0.6-1.26,0.6
		C280.36,197.36,280.03,197.06,280.03,196.45 M284.63,184.88c0.06-0.36-0.02-0.66-0.24-0.91c-0.22-0.25-0.51-0.38-0.87-0.38
		c-0.36,0-0.68,0.13-0.98,0.38s-0.47,0.56-0.54,0.91c-0.04,0.36,0.04,0.66,0.25,0.91c0.21,0.25,0.49,0.38,0.85,0.38
		s0.68-0.13,0.98-0.38C284.39,185.54,284.57,185.24,284.63,184.88 M275.32,189.51c-0.17,0.04-0.42,0.03-0.77-0.03
		c-0.35-0.06-0.56-0.09-0.65-0.09c-0.42,0-0.77,0.14-1.04,0.43c-0.27,0.28-0.61,0.81-1.01,1.59c-2.04,3.87-3.69,5.8-4.95,5.8
		c-0.52,0-0.79-0.41-0.79-1.23c0-0.82,0.41-1.91,1.23-3.28c0.65-1.13,1.36-2.12,2.11-2.96c1.32-1.43,2.44-2.14,3.34-2.14
		c0.78,0,1.28,0.38,1.51,1.13c0.27,0.04,0.45-0.04,0.54-0.25s0.02-0.43-0.19-0.66c-0.67-0.67-1.49-1.01-2.46-1.01
		c-0.36,0-0.74,0.05-1.13,0.16c-1.47,0.36-2.71,1.12-3.72,2.3c-1.79,2.12-2.68,4.21-2.68,6.27c0,1.07,0.31,1.83,0.95,2.27
		c0.27,0.21,0.58,0.32,0.91,0.32c1.22,0,2.67-1.35,4.35-4.07c-0.21,0.76-0.32,1.4-0.32,1.92c0,0.52,0.09,0.94,0.28,1.26
		c0.38,0.59,0.87,0.88,1.48,0.88c1.32,0,2.95-1.95,4.89-5.86c0.06-0.15,0.09-0.27,0.09-0.38c0-0.19-0.08-0.25-0.25-0.19
		c-0.1,0.02-0.2,0.13-0.28,0.31c-0.84,1.72-1.69,3.12-2.55,4.19c-0.59,0.74-1.08,1.1-1.48,1.1c-0.31,0-0.47-0.21-0.47-0.61
		c0-0.41,0.07-0.95,0.21-1.61c0.14-0.66,0.55-1.66,1.25-2.99S274.94,189.89,275.32,189.51 M261.39,187.65
		c-0.52,0-1.35,0.31-2.49,0.93c-1.13,0.62-2.11,1.29-2.91,2.02c-0.81,0.72-1.71,1.7-2.69,2.92c1.76-3.53,3.03-5.5,3.81-5.92
		c-0.17,0.04-0.43,0.03-0.77-0.03c-0.35-0.06-0.56-0.09-0.65-0.09c-0.44,0-0.79,0.13-1.04,0.38c-0.55,0.53-1.7,2.63-3.47,6.3
		c-0.99,2.08-1.65,3.46-1.98,4.13c0.15-0.08,0.45-0.14,0.91-0.16c0.46-0.02,0.77-0.06,0.93-0.11c0.16-0.05,0.3-0.18,0.43-0.39
		c1.41-2.77,2.87-4.85,4.38-6.24c1.01-0.95,1.69-1.42,2.05-1.42s0.54,0.11,0.54,0.33s-0.12,0.52-0.35,0.9
		c-0.95,1.51-1.52,2.6-1.73,3.28c-0.21,0.67-0.31,1.25-0.31,1.72c0,0.47,0.1,0.84,0.31,1.12c0.4,0.59,0.98,0.88,1.75,0.88
		s1.53-0.43,2.3-1.28c0.77-0.85,1.71-2.4,2.82-4.65c0.08-0.15,0.13-0.27,0.13-0.38c0-0.1-0.06-0.19-0.19-0.25
		c-0.12-0.06-0.25,0.05-0.38,0.35c-1.81,3.63-3.25,5.45-4.32,5.45c-0.4,0-0.6-0.27-0.6-0.82c0-1.39,1.29-4.35,3.88-8.89
		C261.63,187.68,261.52,187.65,261.39,187.65 M234.35,184.76c-0.21-0.59-0.55-0.88-1.01-0.88s-0.76,0.33-0.88,0.98
		c-0.34,1.91-0.93,3.93-1.8,6.05c-0.86,2.12-1.88,3.96-3.06,5.51c-0.04,0.08-0.06,0.16-0.06,0.22c0,0.32,0.1,0.38,0.32,0.19
		c1.22-1.18,2.49-3.5,3.81-6.96l0.38-1.01c1.68,0.04,2.52,0.39,2.52,1.04c0,0.15-0.03,0.3-0.09,0.46c-0.06,0.16-0.36,0.69-0.88,1.59
		c-0.53,0.9-0.91,1.67-1.15,2.3c-0.24,0.63-0.36,1.13-0.36,1.51c0,0.38,0.03,0.66,0.09,0.85c0.32,0.99,0.88,1.48,1.7,1.48
		c0.74,0,1.5-0.48,2.3-1.45c0.67-0.78,1.17-1.46,1.48-2.05c0.31-0.59,0.61-1.16,0.88-1.72c0.27-0.56,0.41-0.88,0.41-0.98
		c0-0.09-0.05-0.17-0.14-0.24c-0.1-0.06-0.22,0.04-0.36,0.32c-1.72,3.51-3.03,5.26-3.91,5.26c-0.69,0-0.78-0.8-0.25-2.39
		c0.15-0.42,0.33-0.88,0.55-1.39c0.22-0.5,0.42-0.93,0.6-1.28c0.18-0.35,0.37-0.71,0.57-1.1c0.2-0.39,0.43-0.85,0.68-1.39
		c0.25-0.54,0.38-0.94,0.38-1.21c0-0.27-0.02-0.44-0.06-0.5c-1.07,0.11-1.96,0.16-2.66,0.16s-1.27-0.01-1.69-0.03
		c1.2-0.84,1.8-1.73,1.8-2.68C234.45,185.16,234.42,184.94,234.35,184.76 M223.71,189.54c0,1.03-0.26,2.08-0.79,3.15
		c-0.46,0.97-0.87,1.71-1.23,2.24c0.04-0.17,0.06-0.33,0.06-0.49c0-0.16-0.09-0.33-0.27-0.52c-0.18-0.19-0.4-0.28-0.68-0.28
		c-0.69,0-1.06,0.45-1.1,1.35c0,0.55,0.17,1.06,0.5,1.54c-0.65,0.57-1.24,0.85-1.76,0.85c-0.74,0-1.1-0.48-1.1-1.45
		c0-0.97,0.37-2.21,1.1-3.72c0.61-1.3,1.3-2.33,2.08-3.09c0.78-0.76,1.45-1.13,2.02-1.13C223.33,188,223.71,188.52,223.71,189.54
		 M218.94,188.57c-1.14,1.03-2.03,2.28-2.66,3.75c-0.46,1.01-0.69,1.95-0.69,2.84c0,1.93,0.77,2.9,2.3,2.9
		c0.82,0,1.71-0.36,2.68-1.07c0.48,0.55,1.16,0.82,2.02,0.82c0.46,0,0.96-0.16,1.48-0.47c0.21-0.13,0.43-0.3,0.66-0.54
		c0.23-0.23,0.43-0.44,0.58-0.63c0.16-0.19,0.34-0.44,0.54-0.76c0.2-0.31,0.36-0.57,0.47-0.76c0.11-0.19,0.25-0.45,0.41-0.77
		c0.16-0.32,0.27-0.55,0.33-0.68s0.16-0.34,0.28-0.63l0.19-0.44c0.04-0.08,0.06-0.16,0.06-0.22c0-0.17-0.11-0.24-0.31-0.22
		c-0.11,0-0.18,0.05-0.22,0.14c-0.04,0.09-0.16,0.36-0.36,0.79c-0.2,0.43-0.36,0.76-0.49,0.99c-0.12,0.23-0.33,0.59-0.6,1.09
		c-0.27,0.49-0.73,1.07-1.36,1.72c-0.5,0.57-1.04,0.85-1.61,0.85c-0.71,0-1.21-0.26-1.48-0.79c1.18-1.11,2.06-2.35,2.65-3.72
		c0.46-1.01,0.69-1.95,0.69-2.84c0-1.93-0.77-2.9-2.3-2.9C221.17,187.02,220.09,187.54,218.94,188.57 M206.91,197.01l0.69-1.58
		c0.44,0.55,0.69,1.27,0.76,2.17h-0.19C207.54,197.61,207.12,197.41,206.91,197.01 M206.59,197.71c0.42,0.34,0.93,0.5,1.54,0.5h0.28
		v0.32c0,1.32-0.25,2.8-0.74,4.43s-1.09,2.91-1.8,3.84c-0.7,0.93-1.25,1.4-1.65,1.4c-0.34,0-0.5-0.3-0.5-0.91
		C203.73,205.73,204.68,202.54,206.59,197.71 M206.64,207.22c0.89-1.2,1.53-2.55,1.91-4.07s0.57-2.65,0.57-3.42
		c0-0.77-0.01-1.32-0.03-1.66c1.68,0,3.39-1.98,5.14-5.96c0.04-0.08,0.06-0.16,0.06-0.24s-0.02-0.13-0.06-0.16
		c-0.04-0.03-0.09-0.05-0.14-0.06c-0.05-0.01-0.11,0.01-0.17,0.05c-0.06,0.04-0.22,0.33-0.47,0.87c-0.25,0.54-0.58,1.16-0.98,1.86
		c-0.4,0.7-0.91,1.39-1.54,2.05c-0.63,0.66-1.23,0.99-1.8,0.99h-0.09l-0.09-0.41c-0.19-0.99-0.52-1.77-1.01-2.36
		c1.6-3.59,3.29-6.96,5.07-10.12c1.79-3.15,3.17-5.19,4.16-6.11c-0.17,0.02-0.42,0-0.76-0.06c-0.34-0.06-0.55-0.1-0.63-0.1
		c-0.61,0-1.11,0.18-1.51,0.54c-0.4,0.36-0.79,0.91-1.17,1.67c-1.91,3.57-4.07,8.06-6.46,13.46c-0.06-0.02-0.2-0.03-0.39-0.03
		s-0.45,0.13-0.74,0.38c-0.4,0.29-0.6,0.88-0.6,1.77c0,0.27,0.13,0.62,0.38,1.04c-2.16,5.1-3.25,8.49-3.25,10.15
		c0,1.16,0.58,1.73,1.73,1.73C204.79,209.02,205.75,208.42,206.64,207.22 M192.26,187.65c-0.53,0-1.35,0.31-2.49,0.93
		c-1.13,0.62-2.11,1.29-2.92,2.02c-0.81,0.72-1.71,1.7-2.69,2.92c1.77-3.53,3.04-5.5,3.81-5.92c-0.17,0.04-0.43,0.03-0.77-0.03
		c-0.35-0.06-0.56-0.09-0.65-0.09c-0.44,0-0.79,0.13-1.04,0.38c-0.55,0.53-1.7,2.63-3.47,6.3c-0.99,2.08-1.65,3.46-1.98,4.13
		c0.15-0.08,0.45-0.14,0.91-0.16c0.46-0.02,0.77-0.06,0.93-0.11c0.16-0.05,0.3-0.18,0.42-0.39c1.41-2.77,2.87-4.85,4.38-6.24
		c1.01-0.95,1.69-1.42,2.05-1.42c0.36,0,0.54,0.11,0.54,0.33s-0.12,0.52-0.35,0.9c-0.95,1.51-1.52,2.6-1.73,3.28
		c-0.21,0.67-0.32,1.25-0.32,1.72c0,0.47,0.1,0.84,0.32,1.12c0.4,0.59,0.98,0.88,1.75,0.88c0.77,0,1.53-0.43,2.3-1.28
		c0.77-0.85,1.71-2.4,2.82-4.65c0.08-0.15,0.13-0.27,0.13-0.38c0-0.1-0.06-0.19-0.19-0.25c-0.13-0.06-0.25,0.05-0.38,0.35
		c-1.81,3.63-3.25,5.45-4.32,5.45c-0.4,0-0.6-0.27-0.6-0.82c0-1.39,1.29-4.35,3.88-8.89C192.5,187.68,192.38,187.65,192.26,187.65
		 M176.64,189.54c0,1.03-0.26,2.08-0.79,3.15c-0.46,0.97-0.87,1.71-1.23,2.24c0.04-0.17,0.06-0.33,0.06-0.49
		c0-0.16-0.09-0.33-0.27-0.52c-0.18-0.19-0.4-0.28-0.68-0.28c-0.69,0-1.06,0.45-1.1,1.35c0,0.55,0.17,1.06,0.5,1.54
		c-0.65,0.57-1.24,0.85-1.76,0.85c-0.74,0-1.1-0.48-1.1-1.45c0-0.97,0.37-2.21,1.1-3.72c0.61-1.3,1.3-2.33,2.08-3.09
		c0.78-0.76,1.45-1.13,2.02-1.13C176.25,188,176.64,188.52,176.64,189.54 M171.86,188.57c-1.15,1.03-2.03,2.28-2.66,3.75
		c-0.46,1.01-0.69,1.95-0.69,2.84c0,1.93,0.77,2.9,2.3,2.9c0.82,0,1.71-0.36,2.68-1.07c0.48,0.55,1.15,0.82,2.02,0.82
		c0.46,0,0.96-0.16,1.48-0.47c0.21-0.13,0.43-0.3,0.66-0.54c0.23-0.23,0.43-0.44,0.58-0.63c0.16-0.19,0.34-0.44,0.54-0.76
		c0.2-0.31,0.36-0.57,0.47-0.76c0.12-0.19,0.25-0.45,0.41-0.77c0.16-0.32,0.27-0.55,0.33-0.68s0.16-0.34,0.28-0.63l0.19-0.44
		c0.04-0.08,0.06-0.16,0.06-0.22c0-0.17-0.1-0.24-0.31-0.22c-0.1,0-0.18,0.05-0.22,0.14s-0.16,0.36-0.36,0.79
		c-0.2,0.43-0.36,0.76-0.49,0.99c-0.13,0.23-0.33,0.59-0.6,1.09c-0.27,0.49-0.73,1.07-1.35,1.72c-0.5,0.57-1.04,0.85-1.61,0.85
		c-0.71,0-1.21-0.26-1.48-0.79c1.18-1.11,2.06-2.35,2.65-3.72c0.46-1.01,0.69-1.95,0.69-2.84c0-1.93-0.77-2.9-2.3-2.9
		C174.1,187.02,173.01,187.54,171.86,188.57 M161.36,196.45c0-0.55,0.18-1.21,0.54-1.99l2.52-5.89c0.21-0.38,0.27-0.66,0.19-0.83
		c-0.08-0.18-0.37-0.27-0.85-0.27l-1.73,0.03c0.25,0.34,0.38,0.61,0.38,0.82s-0.02,0.38-0.06,0.5l-2.02,5.14
		c-0.27,0.67-0.41,1.29-0.41,1.86s0.17,1.08,0.5,1.54c0.34,0.46,0.89,0.69,1.66,0.69c0.77,0,1.58-0.49,2.44-1.48
		c0.31-0.36,0.67-0.87,1.06-1.53c0.39-0.66,0.65-1.14,0.79-1.43c0.14-0.29,0.29-0.62,0.46-0.99c0.17-0.37,0.25-0.6,0.25-0.69
		s-0.02-0.16-0.06-0.21c-0.15-0.13-0.29-0.03-0.44,0.28c-1.2,2.4-2.18,3.98-2.96,4.76c-0.44,0.4-0.86,0.6-1.26,0.6
		C161.68,197.36,161.36,197.06,161.36,196.45 M165.96,184.88c0.06-0.36-0.02-0.66-0.24-0.91c-0.22-0.25-0.51-0.38-0.87-0.38
		s-0.68,0.13-0.98,0.38c-0.29,0.25-0.47,0.56-0.54,0.91c-0.04,0.36,0.04,0.66,0.25,0.91c0.21,0.25,0.49,0.38,0.85,0.38
		c0.36,0,0.68-0.13,0.98-0.38C165.72,185.54,165.9,185.24,165.96,184.88 M149.94,195.15c0.06,1.09,0.48,1.88,1.26,2.36
		c-0.17,0.08-0.38,0.13-0.63,0.13c-0.61,0-1-0.28-1.17-0.85c-0.02-0.15-0.03-0.28-0.03-0.41
		C149.38,195.94,149.57,195.53,149.94,195.15 M150.42,194.74c0-0.63-0.22-0.95-0.66-0.95c0.38-0.69,1.36-2.64,2.96-5.83
		c-0.02,0.15-0.03,0.42-0.03,0.82c0,0.4,0.07,1.17,0.22,2.3s0.22,2.03,0.22,2.68c0,1.6-0.46,2.75-1.39,3.47
		C150.86,196.81,150.42,195.98,150.42,194.74 M154.39,195.82c0.44-0.67,0.66-1.36,0.66-2.05c0-0.69-0.24-1.59-0.73-2.68
		c-0.21-0.44-0.4-0.85-0.57-1.23c-0.17-0.38-0.25-0.86-0.25-1.45c0-1.11,0.36-1.84,1.07-2.17c0.13-0.06,0.27-0.09,0.44-0.09
		c0.17,0,0.37,0.05,0.6,0.16s0.38,0.07,0.46-0.09c0.07-0.17-0.03-0.32-0.31-0.46c-0.28-0.14-0.57-0.21-0.87-0.21
		c-1.11,0-2.09,0.89-2.93,2.68c-0.76,1.64-1.67,3.48-2.74,5.51c-0.29,0.02-0.57,0.21-0.83,0.57c-0.26,0.36-0.39,0.73-0.39,1.12
		s0.03,0.72,0.09,0.99c0.31,1.18,1.22,1.77,2.71,1.77c0.38,0,0.81-0.11,1.29-0.32c0.74,0.21,1.49,0.19,2.27-0.06
		c0.48-0.15,0.9-0.4,1.26-0.76l0.66-0.69c0.21-0.19,0.42-0.45,0.63-0.79s0.38-0.62,0.52-0.85c0.14-0.23,0.3-0.54,0.49-0.91
		s0.33-0.67,0.41-0.87s0.17-0.4,0.27-0.6c0.09-0.2,0.14-0.32,0.14-0.36c0-0.17-0.1-0.24-0.28-0.22c-0.1,0-0.18,0.05-0.22,0.16
		c-1.14,2.21-1.92,3.58-2.36,4.13c-0.82,0.99-1.65,1.48-2.49,1.48c-0.11,0-0.29-0.02-0.57-0.06
		C153.42,197.03,153.95,196.49,154.39,195.82 M138.75,195.15c0.06,1.09,0.48,1.88,1.26,2.36c-0.17,0.08-0.38,0.13-0.63,0.13
		c-0.61,0-1-0.28-1.17-0.85c-0.02-0.15-0.03-0.28-0.03-0.41C138.18,195.94,138.37,195.53,138.75,195.15 M139.22,194.74
		c0-0.63-0.22-0.95-0.66-0.95c0.38-0.69,1.37-2.64,2.96-5.83c-0.02,0.15-0.03,0.42-0.03,0.82c0,0.4,0.07,1.17,0.22,2.3
		s0.22,2.03,0.22,2.68c0,1.6-0.46,2.75-1.39,3.47C139.67,196.81,139.22,195.98,139.22,194.74 M143.19,195.82
		c0.44-0.67,0.66-1.36,0.66-2.05c0-0.69-0.24-1.59-0.72-2.68c-0.21-0.44-0.4-0.85-0.57-1.23s-0.25-0.86-0.25-1.45
		c0-1.11,0.36-1.84,1.07-2.17c0.13-0.06,0.27-0.09,0.44-0.09c0.17,0,0.37,0.05,0.6,0.16c0.23,0.11,0.38,0.07,0.46-0.09
		c0.07-0.17-0.03-0.32-0.32-0.46c-0.28-0.14-0.57-0.21-0.87-0.21c-1.11,0-2.09,0.89-2.93,2.68c-0.76,1.64-1.67,3.48-2.74,5.51
		c-0.29,0.02-0.57,0.21-0.83,0.57c-0.26,0.36-0.39,0.73-0.39,1.12s0.03,0.72,0.09,0.99c0.32,1.18,1.22,1.77,2.71,1.77
		c0.38,0,0.81-0.11,1.29-0.32c0.73,0.21,1.49,0.19,2.27-0.06c0.48-0.15,0.9-0.4,1.26-0.76l0.66-0.69c0.21-0.19,0.42-0.45,0.63-0.79
		c0.21-0.34,0.38-0.62,0.52-0.85c0.14-0.23,0.3-0.54,0.49-0.91s0.33-0.67,0.41-0.87c0.08-0.2,0.17-0.4,0.27-0.6
		c0.09-0.2,0.14-0.32,0.14-0.36c0-0.17-0.09-0.24-0.28-0.22c-0.11,0-0.18,0.05-0.22,0.16c-1.13,2.21-1.92,3.58-2.36,4.13
		c-0.82,0.99-1.65,1.48-2.49,1.48c-0.1,0-0.29-0.02-0.57-0.06C142.23,197.03,142.75,196.49,143.19,195.82 M134.35,189.51
		c-0.17,0.04-0.42,0.03-0.77-0.03c-0.35-0.06-0.56-0.09-0.65-0.09c-0.42,0-0.77,0.14-1.04,0.43s-0.61,0.81-1.01,1.59
		c-2.04,3.87-3.69,5.8-4.95,5.8c-0.52,0-0.79-0.41-0.79-1.23c0-0.82,0.41-1.91,1.23-3.28c0.65-1.13,1.35-2.12,2.11-2.96
		c1.32-1.43,2.44-2.14,3.34-2.14c0.78,0,1.28,0.38,1.51,1.13c0.27,0.04,0.45-0.04,0.54-0.25c0.08-0.21,0.02-0.43-0.19-0.66
		c-0.67-0.67-1.49-1.01-2.46-1.01c-0.36,0-0.74,0.05-1.13,0.16c-1.47,0.36-2.71,1.12-3.72,2.3c-1.79,2.12-2.68,4.21-2.68,6.27
		c0,1.07,0.31,1.83,0.94,2.27c0.27,0.21,0.58,0.32,0.91,0.32c1.22,0,2.67-1.35,4.35-4.07c-0.21,0.76-0.31,1.4-0.31,1.92
		c0,0.52,0.09,0.94,0.28,1.26c0.38,0.59,0.87,0.88,1.48,0.88c1.32,0,2.95-1.95,4.88-5.86c0.06-0.15,0.1-0.27,0.1-0.38
		c0-0.19-0.08-0.25-0.25-0.19c-0.1,0.02-0.2,0.13-0.28,0.31c-0.84,1.72-1.69,3.12-2.55,4.19c-0.59,0.74-1.08,1.1-1.48,1.1
		c-0.31,0-0.47-0.21-0.47-0.61c0-0.41,0.07-0.95,0.2-1.61c0.14-0.66,0.55-1.66,1.25-2.99S133.97,189.89,134.35,189.51
		 M119.12,191.94c-0.94,1.74-2.12,3.2-3.53,4.38c-0.88,0.74-1.57,1.1-2.05,1.1s-0.86-0.14-1.13-0.41c1.83-3.4,3.23-5.79,4.21-7.15
		c0.98-1.37,1.83-2.05,2.57-2.05c0.29,0,0.51,0.14,0.65,0.42c0.14,0.28,0.2,0.59,0.2,0.93
		C120.04,189.88,119.73,190.81,119.12,191.94 M119.97,187.02c-0.15-0.04-0.3-0.06-0.47-0.06c-0.57,0-1.16,0.29-1.76,0.88
		c-0.4,0.38-0.77,0.75-1.12,1.1c-0.35,0.36-0.9,1.15-1.65,2.36l-0.63,1.01c0.59-1.58,0.88-3,0.88-4.29c0-0.21-0.03-0.4-0.08-0.57
		c-0.05-0.17-0.18-0.26-0.39-0.27c-0.21-0.01-0.95,0.09-2.21,0.3c0.29,0.13,0.44,0.57,0.44,1.34c0,0.77-0.19,1.6-0.57,2.51
		c-0.29,0.69-0.5,1.16-0.63,1.4c-0.13,0.24-0.13,0.36,0,0.36c0.21-0.02,0.43-0.2,0.66-0.54c-0.25,1.3-1.32,3.83-3.2,7.58
		c-1.88,3.75-3.05,5.85-3.51,6.29c0.17-0.02,0.42,0,0.74,0.06c0.33,0.06,0.52,0.1,0.57,0.1h0.46c0.25,0,0.52-0.11,0.79-0.32
		s0.57-0.65,0.88-1.32l2.99-7.47c0.71,0.38,1.37,0.57,1.97,0.57c0.6,0,1.13-0.06,1.59-0.19c1.22-0.38,2.25-1.08,3.1-2.11
		c0.85-1.03,1.52-2.1,2-3.21c0.48-1.11,0.73-2.13,0.73-3.06C121.55,188.12,121.02,187.3,119.97,187.02"/>
</g>
</svg>
